# xmcd
#
# Track frame offsets:
#	150
#	10704
#	24045
#	35819
#	51105
#	61847
#	78750
#	89564
#	103335
#	117540
#	136064
#	148777
#	161811
#	173069
#	184868
#	195850
#	206160
#	216740
#	230369
#	242294
#	253148
#	265501
#	274658
#	288559
#
# Disc length: 4013 seconds
#
# Revision: 0
# Processed by: cddbd v1.5.2PL0 Copyright (c) Steve Scherf et al.
# Submitted via: EasyCDDAExtractor 12.0.4.1
#
DISCID=580fab18
DTITLE=Various Artist - Greatest Oldies Collector Edition Disc 3
DYEAR=1900
DGENRE=oldies
TTITLE0=All I have to do is dream
TTITLE1=Rose garden
TTITLE2=Let it be me
TTITLE3=For the good time
TTITLE4=Bye bye love
TTITLE5=Don't cry Joni
TTITLE6=Devoted to you
TTITLE7=My girl
TTITLE8=Silence is golden
TTITLE9=Where have all the flowers gone
TTITLE10=Laughter in the rain
TTITLE11=I'm so lonesome I could cry
TTITLE12=Rose Rose I love you
TTITLE13=Save the last dance for me
TTITLE14=King of the road
TTITLE15=Be Bop-A-Lula
TTITLE16=Kisses sweeter than wine
TTITLE17=Ob-la-di Ob-la-da
TTITLE18=Why
TTITLE19=Till I kiss you
TTITLE20=Come back when you grow up
TTITLE21=Wake up little Suzie
TTITLE22=Tom Dooley
TTITLE23=500 Miles
EXTD=
EXTT0=
EXTT1=
EXTT2=
EXTT3=
EXTT4=
EXTT5=
EXTT6=
EXTT7=
EXTT8=
EXTT9=
EXTT10=
EXTT11=
EXTT12=
EXTT13=
EXTT14=
EXTT15=
EXTT16=
EXTT17=
EXTT18=
EXTT19=
EXTT20=
EXTT21=
EXTT22=
EXTT23=
PLAYORDER=
